<?xml version="1.0" encoding="utf-8"?>
<!-- Generator: Adobe Illustrator 19.2.0, SVG Export Plug-In . SVG Version: 6.00 Build 0)  -->
<svg version="1.1" id="Слой_1" xmlns="http://www.w3.org/2000/svg" xmlns:xlink="http://www.w3.org/1999/xlink" x="0px" y="0px"
	 viewBox="0 0 192.4 190.5" style="enable-background:new 0 0 192.4 190.5;" xml:space="preserve">
<style type="text/css">
	.st0{fill:#75ADFC;}
	.st1{fill:#396DAE;}
</style>
<g>
	
		<image style="overflow:visible;opacity:0.17;enable-background:new    ;" width="108" height="73" xlink:href="FA70379923725E86.png"  transform="matrix(0.9249 0 0 0.9249 0 39.7688)">
	</image>
	<g>
		<g>
			<g>
				<polygon class="st0" points="82.7,83.1 42.6,90.1 17.2,64.6 56.6,56.6 				"/>
			</g>
		</g>
	</g>
</g>
<g>
	
		<image style="overflow:visible;opacity:0.17;enable-background:new    ;" width="74" height="108" xlink:href="FA70379923725E8A.png"  transform="matrix(0.9249 0 0 0.9249 39.7688 0)">
	</image>
	<g>
		<g>
			<g>
				<polygon class="st1" points="64.6,17.4 56.6,56.6 82.7,83.1 90.9,43.8 				"/>
			</g>
		</g>
	</g>
</g>
<g>
	
		<image style="overflow:visible;opacity:0.17;enable-background:new    ;" width="108" height="73" xlink:href="FA70379923725E8D.png"  transform="matrix(0.9249 0 0 0.9249 92.4855 39.7688)">
	</image>
	<g>
		<g>
			<g>
				<polygon class="st1" points="109.6,83.1 149.6,90.1 175,64.6 135.7,56.6 				"/>
			</g>
		</g>
	</g>
</g>
<g>
	
		<image style="overflow:visible;opacity:0.17;enable-background:new    ;" width="74" height="108" xlink:href="FA70379923725E8E.png"  transform="matrix(0.9249 0 0 0.9249 84.1618 0)">
	</image>
	<g>
		<g>
			<g>
				<polygon class="st0" points="127.6,17.4 135.7,56.6 109.6,83.1 101.3,43.8 				"/>
			</g>
		</g>
	</g>
</g>
<g>
	
		<image style="overflow:visible;opacity:0.17;enable-background:new    ;" width="108" height="74" xlink:href="FA70379923725E8C.png"  transform="matrix(0.9249 0 0 0.9249 0 83.237)">
	</image>
	<g>
		<g>
			<g>
				<polygon class="st1" points="82.7,107.9 42.6,100.8 17.2,126.4 56.6,134.2 				"/>
			</g>
		</g>
	</g>
</g>
<g>
	
		<image style="overflow:visible;opacity:0.17;enable-background:new    ;" width="74" height="108" xlink:href="FA70379923725E8B.png"  transform="matrix(0.9249 0 0 0.9249 39.7688 90.6359)">
	</image>
	<g>
		<g>
			<g>
				<polygon class="st0" points="64.6,173.5 56.6,134.2 82.7,107.9 90.9,147.2 				"/>
			</g>
		</g>
	</g>
</g>
<g>
	
		<image style="overflow:visible;opacity:0.17;enable-background:new    ;" width="108" height="74" xlink:href="FA70379923725E85.png"  transform="matrix(0.9249 0 0 0.9249 92.4855 83.237)">
	</image>
	<g>
		<g>
			<g>
				<polygon class="st0" points="109.6,107.9 149.6,100.8 175,126.4 135.7,134.2 				"/>
			</g>
		</g>
	</g>
</g>
<g>
	
		<image style="overflow:visible;opacity:0.17;enable-background:new    ;" width="74" height="108" xlink:href="FA70379923725E87.png"  transform="matrix(0.9249 0 0 0.9249 84.1618 90.6359)">
	</image>
	<g>
		<g>
			<g>
				<polygon class="st1" points="127.6,173.5 135.7,134.2 109.6,107.9 101.3,147.2 				"/>
			</g>
		</g>
	</g>
</g>
</svg>
